<svg xmlns="http://www.w3.org/2000/svg" viewBox="0 0 64 64" aria-label="Auto iPhone Uploader">
  <style>:root{--ink:#171719}@media (prefers-color-scheme:dark){:root{--ink:#f1f0ee}}</style>
  <mask id="logoGap" maskUnits="userSpaceOnUse" x="0" y="0" width="64" height="64"><rect width="64" height="64" fill="#fff"/><circle cx="50" cy="50" r="15.6" fill="#000"/></mask><mask id="logoCut" maskUnits="userSpaceOnUse" x="0" y="0" width="64" height="64"><rect width="64" height="64" fill="#fff"/><path d="M50 57V43.2M43.8 49.2 50 43l6.2 6.2" fill="none" stroke="#000" stroke-width="4.4" stroke-linecap="round" stroke-linejoin="round"/></mask><g mask="url(#logoGap)" fill="var(--ink)"><path fill-rule="evenodd" d="M16 2h19a9 9 0 0 1 9 9v42a9 9 0 0 1 -9 9h-19a9 9 0 0 1 -9 -9v-42a9 9 0 0 1 9 -9ZM16.2 6.2h18.6a5 5 0 0 1 5 5v41.6a5 5 0 0 1 -5 5h-18.6a5 5 0 0 1 -5 -5v-41.6a5 5 0 0 1 5 -5Z"/><rect x="19.5" y="9.8" width="12" height="4.2" rx="2.1"/></g><circle cx="50" cy="50" r="12.6" fill="var(--ink)" mask="url(#logoCut)"/>
</svg>
